<svg viewBox="0 0 96 96" xmlns="http://www.w3.org/2000/svg" xmlns:xlink="http://www.w3.org/1999/xlink" id="Icons_Dance" overflow="hidden"><circle cx="32.6" cy="27.4" r="6" fill="#FFC000"/><circle cx="63.6" cy="17.4" r="6" fill="#FFC000"/><path d="M91.6 23.4C90.4 22.2 88.6 22.2 87.4 23.4L83.2 27.6 77.2 23.2C76.4 22.6 75.4 22.4 74.6 22.8L60.6 26.8C60.2 27 59.6 27.2 59.4 27.6L54.2 32.8 47.4 32.8C45.8 32.8 44.4 34.2 44.4 35.8 44.4 37.4 45.8 38.8 47.4 38.8L55.4 38.8C56.2 38.8 57 38.4 57.6 38L63 32.6 67.2 45 57.8 51.2C56.8 51.8 56.4 53 56.4 54.2L58.4 68.2C58.6 69.6 59.8 70.8 61.4 70.8 61.6 70.8 61.6 70.8 61.8 70.8 63.4 70.6 64.6 69 64.4 67.4L62.6 55.2 70.8 49.8 68.6 54.6C68.4 55.2 68.2 55.6 68.4 56.2L70.4 70.2C70.6 71.6 71.8 72.8 73.4 72.8 73.6 72.8 73.6 72.8 73.8 72.8 75.4 72.6 76.6 71 76.4 69.4L74.6 56 79.2 45.6C79.2 45.6 79.6 44.2 79.6 43.6 79.6 42.8 79.2 41.6 79.2 41.6L76 29.6 81.6 33.8C82.8 34.6 84.4 34.6 85.6 33.6L91.6 27.6C92.8 26.4 92.8 24.6 91.6 23.4Z" fill="#FFC000"/><path d="M51.2 44.2C50.4 42.8 48.6 42.2 47.2 42.8L41.6 45.6 37 38C36.6 37.4 36 36.8 35.2 36.6L21.2 32.6C20.2 32.4 19 32.6 18.2 33.4L12.6 39 8.6 33.8C8 32.4 6 32.2 4.6 33 3.4 34 3.2 36 4 37.2L10 45.2C10.6 45.8 11.4 46.4 12.2 46.4 13 46.4 14 46.2 14.6 45.6L20.4 39.8 16.8 53.4C16.6 54 16.4 54.8 16.4 55.4 16.4 56.6 16.8 57.8 17.6 58.8L23.2 67.8 19.6 80.6C19.2 82.2 20 83.8 21.6 84.4 21.8 84.4 22.2 84.6 22.4 84.6 23.8 84.6 25 83.8 25.2 82.4L29.2 68.4C29.4 67.6 29.4 66.6 28.8 66L25.4 60.6 33.4 65.4 33.4 79.8C33.4 81.4 34.8 82.8 36.4 82.8 38 82.8 39.4 81.4 39.4 79.8L39.4 63.8C39.4 62.8 38.8 61.8 38 61.2L29.4 56 33.2 43.6 37.8 51.2C38.4 52.2 39.4 52.6 40.4 52.6 40.8 52.6 41.4 52.4 41.8 52.2L49.8 48.2C51.4 47.4 52 45.6 51.2 44.2Z" fill="#FFC000"/></svg>