<svg width="366" height="130" xmlns="http://www.w3.org/2000/svg" xmlns:xlink="http://www.w3.org/1999/xlink" overflow="hidden"><defs><clipPath id="clip0"><rect x="364" y="452" width="366" height="130"/></clipPath><clipPath id="clip1"><rect x="365" y="466" width="96" height="96"/></clipPath><clipPath id="clip2"><rect x="365" y="466" width="96" height="96"/></clipPath><clipPath id="clip3"><rect x="365" y="466" width="96" height="96"/></clipPath></defs><g clip-path="url(#clip0)" transform="translate(-364 -452)"><path d="M365.5 454.5 635.833 454.5 656.5 475.167 656.5 578.5 656.5 578.5 386.167 578.5 365.5 557.833 365.5 454.5Z" stroke="#26ACE2" stroke-width="1.33333" stroke-miterlimit="8" fill="#26ACE2" fill-rule="evenodd"/><g clip-path="url(#clip1)"><g clip-path="url(#clip2)"><g clip-path="url(#clip3)"><path d="M446 504.34C445.638 502.162 443.579 500.689 441.4 501.05L432.65 502.51C432.65 502.51 429 492.82 429 492.73 427.14 487 419.16 487 413 487 406.84 487 398.91 487 397.09 492.73 397.09 492.82 393.41 502.51 393.41 502.51L384.66 501.05C382.485 500.665 380.409 502.117 380.025 504.292 379.64 506.468 381.091 508.543 383.267 508.928 383.291 508.932 383.316 508.936 383.34 508.94L395.34 510.94C395.558 510.98 395.779 511 396 511 397.67 511.001 399.165 509.965 399.75 508.4L402.21 501.81 403 502.16 403 559 411 559 411 523 415 523 415 559 423 559 423 502.17C423.29 502.05 423.57 501.93 423.84 501.8L426.31 508.4C426.893 509.961 428.383 510.997 430.05 511 430.271 511 430.492 510.98 430.71 510.94L442.71 508.94C444.888 508.578 446.361 506.519 446 504.34Z" fill="#FFFFFF"/><path d="M421 477C421 481.418 417.418 485 413 485 408.582 485 405 481.418 405 477 405 472.582 408.582 469 413 469 417.418 469 421 472.582 421 477Z" fill="#FFFFFF"/></g></g></g><text fill="#FFFFFF" font-family="Arial,Arial_MSFontService,sans-serif" font-weight="900" font-size="37" transform="translate(456.841 504)">Meet A<tspan fill="#FFC000" x="0" y="45">Strange</tspan><tspan fill="#FFC000" x="159.973" y="45">r</tspan></text></g></svg>